<?xml version="1.0" encoding="UTF-8"?>
<svg id="Layer_1" data-name="Layer 1" xmlns="http://www.w3.org/2000/svg" viewBox="0 0 107 15">
  <defs>
    <style>
      .cls-1 {
        fill: #fff;
      }
    </style>
  </defs>
  <path class="cls-1" d="m.73,2.66c-.04-.14.04-.24.18-.24h.68c.08,0,.16.07.18.14l1.23,4.66h.04l1.66-4.8c.02-.06.09-.11.17-.11h.18c.08,0,.15.05.17.11l1.68,4.8h.04l1.21-4.66c.02-.07.1-.14.18-.14h.68c.14,0,.22.1.18.24l-1.92,6.83c-.02.08-.1.14-.18.14h-.16c-.07,0-.15-.05-.17-.11l-1.79-5.05h-.05l-1.76,5.05c-.02.06-.1.11-.17.11h-.16c-.08,0-.16-.06-.18-.14L.73,2.66Z"/>
  <path class="cls-1" d="m11.39,5.37c1.06,0,1.87.79,1.87,1.88,0,.07-.01.2-.02.27-.01.1-.09.17-.18.17h-2.76c.03.55.51,1.09,1.17,1.09.37,0,.7-.16.9-.29.12-.07.19-.11.27-.01l.28.39c.07.08.1.16-.02.26-.29.25-.82.51-1.5.51-1.23,0-2.04-.96-2.04-2.13s.81-2.13,2.03-2.13Zm.92,1.69c-.03-.49-.44-.9-.93-.9-.55,0-.98.4-1.04.9h1.97Z"/>
  <path class="cls-1" d="m14.24,2.61c0-.1.09-.19.19-.19h.59c.1,0,.19.09.19.19v2.98c.09-.03.46-.22.98-.22,1.13,0,2,.94,2,2.13s-.82,2.13-1.9,2.13c-.8,0-1.29-.57-1.29-.57l-.08.29c-.03.1-.09.17-.18.17h-.3c-.1,0-.19-.09-.19-.19V2.61Zm1.93,6.15c.65,0,1.08-.58,1.08-1.26s-.48-1.25-1.16-1.25c-.53,0-.88.23-.88.23v1.67c.05.11.35.61.97.61Z"/>
  <path class="cls-1" d="m24.93,2.32c1.03,0,1.77.35,2.46.94.09.08.09.2.01.28l-.45.46c-.07.09-.16.09-.25,0-.48-.42-1.13-.68-1.76-.68-1.45,0-2.55,1.22-2.55,2.64s1.11,2.63,2.56,2.63c.74,0,1.26-.29,1.75-.67.09-.07.18-.06.24-.01l.47.46c.08.07.06.2,0,.27-.69.67-1.56.99-2.47.99-2.03,0-3.67-1.61-3.67-3.65s1.64-3.67,3.67-3.67Z"/>
  <path class="cls-1" d="m30.13,5.37c1.14,0,2.05.97,2.05,2.12s-.91,2.14-2.05,2.14-2.05-.97-2.05-2.14.91-2.12,2.05-2.12Zm0,3.39c.64,0,1.15-.57,1.15-1.27s-.51-1.24-1.15-1.24-1.15.56-1.15,1.24.51,1.27,1.15,1.27Z"/>
  <path class="cls-1" d="m33.2,5.66c0-.1.09-.19.19-.19h.28c.09,0,.14.05.17.12l.11.35c.09-.09.56-.57,1.34-.57.59,0,1.02.23,1.31.65.11-.11.7-.65,1.47-.65,1.24,0,1.68.87,1.68,1.93v2.04c0,.1-.08.19-.19.19h-.57c-.11,0-.19-.09-.19-.19v-2.08c0-.64-.29-1.01-.84-1.01-.62,0-.98.44-1.05.5.02.09.03.28.03.49v2.1c0,.1-.09.19-.19.19h-.54c-.11,0-.19-.09-.19-.19v-2.08c0-.65-.29-1.01-.86-1.01-.61,0-.95.48-1.01.61v2.48c0,.1-.09.19-.19.19h-.57c-.1,0-.19-.09-.19-.19v-3.68Z"/>
  <path class="cls-1" d="m41.04,5.66c0-.1.09-.19.19-.19h.28c.09,0,.14.05.17.12l.11.35c.09-.09.56-.57,1.34-.57.59,0,1.02.23,1.31.65.11-.11.7-.65,1.47-.65,1.24,0,1.68.87,1.68,1.93v2.04c0,.1-.08.19-.19.19h-.57c-.11,0-.19-.09-.19-.19v-2.08c0-.64-.29-1.01-.84-1.01-.62,0-.98.44-1.05.5.02.09.03.28.03.49v2.1c0,.1-.09.19-.19.19h-.54c-.11,0-.19-.09-.19-.19v-2.08c0-.65-.29-1.01-.86-1.01-.61,0-.95.48-1.01.61v2.48c0,.1-.09.19-.19.19h-.57c-.1,0-.19-.09-.19-.19v-3.68Z"/>
  <path class="cls-1" d="m48.81,5.66c0-.1.09-.19.19-.19h.58c.1,0,.19.09.19.19v2.08c0,.66.32,1.02.83,1.02.6,0,.97-.49,1.01-.67v-2.43c0-.16.08-.19.22-.19h.53c.1,0,.19.09.19.19v3.68c0,.1-.09.19-.19.19h-.28c-.1,0-.15-.07-.18-.16l-.1-.29c-.09.08-.52.56-1.34.56-1.22,0-1.65-.86-1.65-1.92v-2.05Z"/>
  <path class="cls-1" d="m53.89,5.66c0-.1.09-.19.19-.19h.29c.08,0,.14.05.16.12l.12.35c.07-.08.61-.57,1.42-.57,1.24,0,1.7.87,1.7,1.93v2.04c0,.1-.09.19-.19.19h-.58c-.11,0-.19-.09-.19-.19v-2.08c0-.65-.31-1.01-.84-1.01-.64,0-1.08.47-1.13.61v2.48c0,.13-.06.19-.23.19h-.53c-.1,0-.19-.09-.19-.19v-3.68Z"/>
  <path class="cls-1" d="m58.94,3.22c0-.34.25-.6.58-.6s.6.26.6.6-.26.59-.6.59-.58-.26-.58-.59Zm.11,2.44c0-.1.09-.19.19-.19h.58c.1,0,.19.09.19.19v3.68c0,.1-.09.19-.19.19h-.58c-.1,0-.19-.09-.19-.19v-3.68Z"/>
  <path class="cls-1" d="m61.6,6.31h-.43c-.11,0-.19-.09-.19-.19v-.46c0-.11.08-.19.19-.19h.43v-1.13c0-.1.09-.19.19-.19h.58c.1-.01.18.08.18.18v1.14h1.04c.11,0,.19.08.19.19v.46c0,.1-.08.19-.19.19h-1.04v2.01c0,.35.13.41.33.41.21,0,.5-.12.62-.18.13-.06.19,0,.23.09l.18.45c.05.11,0,.19-.09.24-.1.06-.7.3-1.19.3-.8,0-1.04-.49-1.04-1.21v-2.11Z"/>
  <path class="cls-1" d="m64.3,5.73c-.06-.13.02-.26.17-.26h.67c.06,0,.14.05.17.11l1.26,2.7h0l1.22-2.7c.04-.09.12-.11.21-.11h.58c.16,0,.24.13.17.26l-3.11,6.73c-.03.06-.09.12-.17.12h-.61c-.15,0-.24-.13-.17-.27l1.36-2.92-1.77-3.66Z"/>
  <path class="cls-1" d="m72.89,2.47c.02-.08.1-.15.18-.15h.16c.06,0,.15.05.17.11l2.12,5.19h.04l2.11-5.19c.02-.06.1-.11.17-.11h.16c.08,0,.16.07.18.15l1.25,6.83c.03.14-.04.23-.18.23h-.66c-.09,0-.17-.07-.19-.14l-.75-4.54h-.03l-1.83,4.67c-.02.06-.08.11-.17.11h-.18c-.08,0-.15-.05-.17-.11l-1.84-4.67h-.04l-.73,4.54c0,.07-.1.14-.18.14h-.66c-.14,0-.21-.09-.19-.23l1.26-6.83Z"/>
  <path class="cls-1" d="m81.87,6.96c.43,0,.8.12.8.12.01-.64-.11-.89-.63-.89-.47,0-.92.12-1.14.18-.12.03-.19-.05-.22-.16l-.08-.38c-.03-.13.04-.2.13-.23.07-.03.65-.23,1.4-.23,1.3,0,1.42.79,1.42,1.81v2.16c0,.1-.09.19-.19.19h-.28c-.09,0-.13-.04-.17-.14l-.1-.27c-.22.21-.62.52-1.25.52-.76,0-1.31-.52-1.31-1.36,0-.74.59-1.31,1.63-1.31Zm-.12,1.95c.41,0,.79-.3.91-.51v-.65c-.06-.04-.35-.16-.71-.16-.49,0-.82.25-.82.67,0,.37.24.65.62.65Z"/>
  <path class="cls-1" d="m84.84,5.66c0-.1.09-.19.19-.19h.29c.08,0,.14.05.16.12l.12.35c.07-.08.61-.57,1.42-.57,1.24,0,1.7.87,1.7,1.93v2.04c0,.1-.09.19-.19.19h-.58c-.11,0-.19-.09-.19-.19v-2.08c0-.65-.32-1.01-.84-1.01-.64,0-1.08.47-1.13.61v2.48c0,.13-.06.19-.23.19h-.53c-.1,0-.19-.09-.19-.19v-3.68Z"/>
  <path class="cls-1" d="m91.34,6.96c.43,0,.8.12.8.12.01-.64-.11-.89-.63-.89-.47,0-.92.12-1.14.18-.12.03-.19-.05-.22-.16l-.08-.38c-.03-.13.04-.2.13-.23.07-.03.65-.23,1.4-.23,1.3,0,1.42.79,1.42,1.81v2.16c0,.1-.09.19-.19.19h-.28c-.09,0-.13-.04-.17-.14l-.1-.27c-.22.21-.62.52-1.25.52-.76,0-1.31-.52-1.31-1.36,0-.74.59-1.31,1.63-1.31Zm-.12,1.95c.41,0,.79-.3.91-.51v-.65c-.06-.04-.35-.16-.71-.16-.49,0-.82.25-.82.67,0,.37.24.65.62.65Z"/>
  <path class="cls-1" d="m94.62,8.13s-.31-.38-.31-.98c0-.94.71-1.78,1.75-1.78h1.78c.11,0,.19.08.19.19v.25c0,.07-.04.16-.11.17l-.56.15s.44.33.44,1.09c0,.86-.67,1.66-1.73,1.66-.52,0-.8-.16-.88-.16-.07,0-.42.17-.42.5,0,.23.18.42.49.42h1.38c.88,0,1.6.48,1.6,1.36s-.81,1.69-2.16,1.69c-1.43,0-2.01-.73-2.01-1.39,0-.61.5-.89.6-.96v-.03c-.21-.06-.75-.34-.75-1.02,0-.78.72-1.16.72-1.16Zm1.43,3.72c.62,0,1.16-.31,1.16-.8,0-.16-.1-.58-.76-.58-.29,0-.6,0-.89.02-.06.02-.56.18-.56.64,0,.42.44.72,1.06.72Zm.87-4.68c0-.55-.35-.93-.85-.93s-.89.39-.89.93.38.93.89.93.85-.39.85-.93Z"/>
  <path class="cls-1" d="m100.72,5.37c1.06,0,1.87.79,1.87,1.88,0,.07,0,.2-.02.27,0,.1-.09.17-.18.17h-2.76c.03.55.51,1.09,1.17,1.09.37,0,.7-.16.9-.29.12-.07.19-.11.27-.01l.28.39c.07.08.1.16-.02.26-.29.25-.82.51-1.5.51-1.23,0-2.04-.96-2.04-2.13s.81-2.13,2.03-2.13Zm.93,1.69c-.03-.49-.44-.9-.93-.9-.55,0-.97.4-1.04.9h1.97Z"/>
  <path class="cls-1" d="m103.56,5.66c0-.1.09-.19.19-.19h.29c.07,0,.15.06.17.14l.11.35c.07-.1.45-.59,1.19-.59.39,0,.85.1.74.38l-.24.5c-.05.11-.15.13-.24.09-.06-.03-.21-.07-.35-.07-.59,0-.87.43-.91.5v2.58c0,.17-.11.19-.27.19h-.49c-.1,0-.19-.09-.19-.19v-3.68Z"/>
</svg>